<?xml version="1.0" standalone="no"?>
<!DOCTYPE svg PUBLIC "-//W3C//DTD SVG 20010904//EN"
 "http://www.w3.org/TR/2001/REC-SVG-20010904/DTD/svg10.dtd">
<svg version="1.0" xmlns="http://www.w3.org/2000/svg"
 width="500.000000pt" height="500.000000pt" viewBox="0 0 500.000000 500.000000"
 preserveAspectRatio="xMidYMid meet">
<metadata>
Created by potrace 1.14, written by Peter Selinger 2001-2017
</metadata>
<g transform="translate(0.000000,500.000000) scale(0.100000,-0.100000)"
fill="#000000" stroke="none">
<path d="M0 2500 l0 -2500 2500 0 2500 0 0 2500 0 2500 -2500 0 -2500 0 0
-2500z m2558 2169 c7 -19 9 -19 21 -5 8 9 17 16 22 16 13 0 11 -37 -2 -59 -19
-30 -3 -69 36 -85 35 -15 48 -46 20 -46 -21 0 -19 -13 5 -35 23 -21 26 -41 8
-48 -10 -4 -10 -7 0 -18 6 -7 12 -21 12 -31 0 -20 60 -63 103 -74 45 -11 26
-29 -26 -26 -44 4 -62 -8 -37 -23 6 -3 10 -15 10 -26 0 -10 5 -19 11 -19 7 0
9 -10 5 -25 -5 -20 2 -34 35 -70 30 -32 40 -51 36 -66 -3 -12 0 -22 9 -26 8
-3 14 -12 14 -19 0 -25 -28 -27 -56 -5 -15 12 -29 19 -32 16 -8 -8 69 -85 84
-85 18 0 28 -20 17 -31 -6 -6 -20 -6 -37 1 -18 6 -25 6 -21 0 3 -6 26 -15 51
-21 45 -12 57 -31 27 -44 -16 -6 -15 -8 5 -16 31 -12 28 -29 -5 -29 -25 0 -23
-3 22 -28 27 -15 49 -31 47 -37 -1 -5 -21 -10 -42 -9 -22 0 -40 -3 -40 -7 0
-36 48 -69 99 -69 35 0 52 -19 23 -27 -25 -6 -18 -33 9 -33 22 0 23 -4 9 -30
-8 -15 -16 -17 -33 -11 -31 11 -120 8 -124 -4 -2 -6 7 -15 19 -20 12 -6 26
-19 32 -30 28 -52 59 -93 74 -97 10 -3 23 -25 31 -54 8 -27 18 -55 24 -62 16
-21 1 -25 -54 -13 -28 6 -54 9 -56 7 -3 -2 1 -14 7 -26 6 -11 10 -26 7 -33 -3
-11 60 -71 85 -79 19 -7 -1 -28 -28 -28 -37 0 -29 -17 13 -27 38 -9 61 -43 29
-43 -9 0 -16 -4 -16 -10 0 -5 -9 -10 -21 -10 -11 0 -17 -4 -14 -10 8 -13 46
-33 43 -23 -2 4 2 9 7 11 6 2 15 -14 20 -36 7 -25 26 -55 58 -85 26 -25 47
-51 47 -57 0 -13 3 -13 -65 10 -60 21 -81 19 -53 -3 9 -6 43 -33 76 -59 62
-49 83 -88 61 -114 -13 -16 -41 -18 -55 -4 -6 6 -21 6 -42 1 -18 -5 -32 -6
-32 -1 0 4 -10 10 -21 13 -12 3 -18 2 -13 -2 86 -73 135 -110 173 -131 53 -29
59 -52 16 -61 -16 -4 -25 -7 -18 -8 6 0 9 -10 6 -21 -8 -29 14 -75 43 -90 33
-18 32 -42 -1 -34 -35 9 -32 -1 18 -55 72 -81 87 -128 32 -103 -30 14 -115 16
-115 4 0 -5 11 -19 24 -31 14 -13 30 -37 37 -54 17 -41 94 -117 118 -117 26 0
36 -41 14 -57 -15 -11 -9 -21 51 -83 37 -38 66 -75 63 -82 -5 -15 -70 -12 -99
3 -13 7 -25 5 -41 -6 -14 -9 -32 -13 -43 -9 -14 5 -12 -1 10 -24 16 -17 26
-37 23 -45 -3 -8 14 -38 39 -68 24 -30 43 -60 44 -66 0 -7 18 -22 40 -33 36
-18 55 -50 30 -50 -5 0 -9 -10 -7 -22 5 -45 -74 -58 -131 -21 -13 8 -25 13
-27 11 -9 -9 38 -71 65 -86 16 -9 30 -24 30 -32 0 -8 9 -21 20 -28 11 -7 20
-19 20 -26 0 -8 10 -16 23 -18 32 -4 34 -41 3 -66 -15 -11 -26 -25 -26 -31 0
-25 -37 -30 -74 -10 l-36 19 15 -37 c9 -21 38 -61 65 -88 51 -52 62 -75 34
-75 -28 0 -53 20 -94 75 -39 53 -81 77 -65 38 4 -10 10 -27 13 -38 3 -11 11
-29 19 -40 14 -21 18 -55 5 -55 -4 0 -30 22 -57 50 -30 30 -53 46 -58 41 -5
-5 -16 -7 -23 -4 -17 6 -19 -28 -3 -44 7 -7 9 -19 5 -28 -5 -13 -13 -15 -33
-10 -26 6 -27 6 -10 -13 25 -27 21 -39 -14 -46 -25 -5 -39 0 -66 20 -19 14
-37 32 -40 40 -3 8 -14 14 -24 14 -12 0 -28 14 -40 35 -12 19 -25 35 -30 35
-14 0 -10 -69 6 -124 21 -69 20 -108 -2 -104 -13 2 -22 21 -31 66 -14 65 -35
88 -25 27 6 -38 -15 -51 -24 -15 -3 11 -8 20 -12 20 -3 0 -16 3 -28 6 -18 5
-23 0 -32 -33 -6 -21 -11 -59 -11 -86 0 -54 36 -206 54 -224 6 -7 40 -14 75
-17 47 -3 74 -11 103 -30 22 -14 47 -26 56 -26 11 1 7 6 -11 16 -15 8 -25 19
-21 25 7 12 41 2 75 -23 23 -18 70 -27 156 -32 46 -2 61 -20 38 -46 -21 -24
-66 -26 -163 -8 -58 11 -66 10 -77 -5 -12 -17 -17 -16 -90 4 -42 11 -79 18
-82 15 -4 -3 2 -15 12 -26 28 -31 9 -37 -40 -10 -32 17 -47 21 -57 13 -19 -15
-117 -25 -153 -15 -33 9 -50 52 -21 52 23 0 20 23 -7 52 -21 23 -25 24 -45 10
-14 -9 -22 -25 -22 -43 0 -30 -17 -40 -26 -15 -6 16 -70 14 -87 -3 -16 -16
-47 -13 -53 4 -4 8 -14 15 -23 15 -19 -1 -92 -59 -73 -60 26 0 10 -20 -25 -30
-26 -8 -57 -8 -95 -2 -34 5 -84 5 -124 0 -75 -10 -124 2 -124 31 0 29 22 41
76 41 56 0 83 16 37 22 -39 4 -40 25 -1 31 18 2 64 12 103 20 54 13 79 14 111
6 41 -11 43 -10 99 36 l58 47 3 98 c2 57 -1 102 -6 105 -6 4 -10 -13 -10 -42
0 -63 -10 -123 -21 -123 -5 0 -10 44 -11 97 l-3 97 -32 10 c-29 8 -35 6 -62
-23 -20 -22 -38 -31 -60 -31 -27 0 -31 3 -31 28 0 15 5 44 11 65 6 22 9 40 7
42 -2 2 -26 -11 -53 -29 -28 -18 -65 -38 -83 -44 -32 -11 -62 -7 -62 8 0 10
-127 -42 -185 -75 -40 -24 -65 -26 -65 -7 0 4 19 19 43 34 23 15 55 40 70 56
27 29 28 30 13 72 -13 38 -13 45 1 67 25 38 8 37 -21 -2 -32 -42 -46 -44 -46
-9 0 23 -3 25 -22 19 -13 -3 -54 -10 -93 -14 -38 -4 -85 -15 -103 -25 -19 -9
-40 -15 -48 -12 -23 9 -2 39 43 62 46 23 113 73 113 84 0 4 29 38 65 75 36 38
63 70 61 72 -2 2 -40 -14 -85 -36 -44 -23 -87 -41 -96 -41 -21 0 -19 18 5 32
11 7 20 17 20 22 0 5 9 20 21 32 l21 23 -43 22 c-48 24 -61 38 -54 56 5 16 6
16 -45 -2 -24 -8 -45 -13 -48 -11 -13 14 13 36 60 51 98 30 153 68 139 94 -13
22 3 48 58 98 32 30 41 42 29 43 -25 0 -22 9 14 47 38 39 25 43 -26 8 -37 -25
-66 -32 -66 -16 0 12 131 131 145 131 23 0 103 105 90 118 -2 2 -43 -16 -92
-41 -79 -40 -210 -87 -242 -87 -22 0 -11 18 20 30 18 8 28 18 25 26 -8 21 4
43 33 59 l26 15 -39 -2 c-56 -4 -55 16 1 37 45 17 88 50 205 155 47 43 49 48
43 83 -9 45 -30 48 -107 15 -49 -21 -51 -21 -64 -3 -23 31 -16 45 34 66 31 14
59 36 84 68 l37 48 -72 -38 c-76 -41 -103 -47 -110 -26 -7 22 5 37 44 57 22
12 36 25 33 33 -7 18 50 82 65 73 9 -6 9 -11 0 -22 -24 -29 7 -13 43 23 25 24
38 46 38 63 0 32 19 50 85 85 48 25 90 63 81 72 -7 7 -80 -33 -100 -56 -23
-25 -42 -27 -54 -4 -9 15 -14 13 -50 -15 -44 -35 -69 -40 -78 -17 -9 23 23 65
61 80 18 8 54 35 79 61 39 39 45 49 34 61 -11 13 -7 20 22 42 46 34 113 102
106 108 -8 8 -79 -18 -101 -37 -11 -10 -38 -27 -61 -38 -83 -42 -137 -25 -69
21 34 23 35 25 14 30 -21 6 -21 7 -7 29 8 13 36 34 61 48 52 28 123 88 114 96
-3 3 -14 1 -25 -5 -29 -15 -42 -14 -42 4 0 10 25 27 63 44 34 15 68 35 75 43
10 13 6 16 -32 21 -32 5 -53 1 -82 -13 -21 -11 -45 -20 -53 -20 -26 0 -91 33
-91 47 0 18 91 83 115 82 37 -2 45 1 45 17 0 10 6 14 15 10 11 -4 15 1 15 18
0 12 11 33 25 46 17 16 22 27 15 35 -6 7 -8 19 -5 27 7 17 -21 30 -102 48 -62
14 -93 34 -77 50 8 8 18 8 37 -1 31 -14 92 -1 175 36 52 24 72 52 30 42 -89
-20 -88 -20 -95 -2 -8 23 35 59 100 83 26 9 47 20 47 24 0 13 -27 9 -58 -9
-18 -10 -36 -14 -48 -9 -18 7 -17 8 6 21 23 13 24 14 4 15 -26 0 -48 24 -41
44 4 11 14 12 52 3 45 -10 47 -10 70 19 26 32 24 41 -11 54 -28 11 -47 50 -33
65 6 6 31 17 57 25 38 12 51 22 65 52 18 37 18 37 -7 81 l-26 44 23 34 c16 25
32 35 57 39 23 3 31 8 23 13 -7 5 -13 19 -13 33 0 21 4 25 23 22 16 -2 26 5
38 27 l17 30 -32 5 c-43 7 -45 34 -4 50 51 21 88 50 88 70 0 10 7 20 15 24 31
11 16 33 -21 32 -45 -1 -57 21 -17 29 50 11 53 14 53 43 0 17 -10 38 -25 52
-30 28 -32 40 -6 40 10 0 21 7 25 15 8 21 25 19 34 -6z m829 -4210 l35 -22
-21 -21 c-16 -16 -25 -18 -38 -10 -25 15 -37 39 -30 58 8 21 13 20 54 -5z"/>
<path d="M2599 4427 c15 -19 41 -23 41 -7 0 6 -4 10 -9 10 -5 0 -18 3 -28 7
-16 6 -16 5 -4 -10z"/>
<path d="M2398 4223 c7 -3 16 -2 19 1 4 3 -2 6 -13 5 -11 0 -14 -3 -6 -6z"/>
<path d="M2345 4101 c-3 -5 0 -21 6 -35 10 -21 15 -24 26 -14 13 10 12 14 -2
24 -9 7 -14 17 -10 23 3 6 2 11 -4 11 -5 0 -12 -4 -16 -9z"/>
<path d="M2672 4098 c3 -7 20 -22 39 -32 l34 -20 -20 25 c-32 38 -62 54 -53
27z"/>
<path d="M2690 4008 c0 -8 7 -21 15 -28 19 -16 19 -1 0 24 -12 16 -15 17 -15
4z"/>
<path d="M2355 3990 c-3 -6 1 -7 9 -4 18 7 21 14 7 14 -6 0 -13 -4 -16 -10z"/>
<path d="M2580 3806 c0 -2 8 -10 18 -17 15 -13 16 -12 3 4 -13 16 -21 21 -21
13z"/>
<path d="M2348 3754 c-16 -8 -28 -17 -28 -19 0 -11 19 -4 41 15 29 23 24 25
-13 4z"/>
<path d="M2327 3710 c-27 -8 -56 -35 -57 -53 0 -12 53 18 74 42 11 12 17 21
15 20 -2 0 -17 -5 -32 -9z"/>
<path d="M2805 3606 c16 -24 45 -42 45 -28 0 16 -32 52 -46 52 -12 0 -12 -3 1
-24z"/>
<path d="M2492 3600 c0 -14 2 -19 5 -12 2 6 2 18 0 25 -3 6 -5 1 -5 -13z"/>
<path d="M2749 3603 c12 -24 31 -39 31 -25 0 5 -10 17 -21 28 -22 19 -22 19
-10 -3z"/>
<path d="M2254 3469 c-19 -22 -19 -22 3 -10 24 12 39 31 25 31 -5 0 -17 -10
-28 -21z"/>
<path d="M2279 3443 c-13 -16 -12 -17 4 -4 9 7 17 15 17 17 0 8 -8 3 -21 -13z"/>
<path d="M2466 3419 c-8 -42 0 -50 9 -9 4 17 5 34 2 36 -2 3 -7 -10 -11 -27z"/>
<path d="M2886 3405 c9 -14 21 -25 27 -25 6 0 0 11 -13 25 -13 14 -25 25 -27
25 -2 0 4 -11 13 -25z"/>
<path d="M2640 3409 c0 -5 5 -7 10 -4 6 3 10 8 10 11 0 2 -4 4 -10 4 -5 0 -10
-5 -10 -11z"/>
<path d="M2160 3397 c0 -21 12 -28 27 -16 19 16 16 29 -7 29 -11 0 -20 -6 -20
-13z"/>
<path d="M2406 3345 c-3 -8 -1 -15 4 -15 6 0 10 7 10 15 0 8 -2 15 -4 15 -2 0
-6 -7 -10 -15z"/>
<path d="M2580 3279 c0 -11 5 -17 10 -14 6 3 10 13 10 21 0 8 -4 14 -10 14 -5
0 -10 -9 -10 -21z"/>
<path d="M2160 3240 c-9 -6 -10 -10 -3 -10 6 0 15 5 18 10 8 12 4 12 -15 0z"/>
<path d="M2387 3143 c-4 -3 -7 -13 -7 -22 1 -13 3 -13 11 2 11 19 8 33 -4 20z"/>
<path d="M2130 3060 c-55 -64 -58 -74 -9 -38 29 21 74 86 66 95 -3 2 -28 -23
-57 -57z"/>
<path d="M2210 3079 c0 -5 5 -7 10 -4 6 3 10 8 10 11 0 2 -4 4 -10 4 -5 0 -10
-5 -10 -11z"/>
<path d="M2240 3055 c-11 -13 -10 -14 4 -9 9 3 16 10 16 15 0 13 -6 11 -20 -6z"/>
<path d="M2591 3045 c0 -11 4 -27 9 -35 9 -13 10 -13 9 0 0 8 -4 24 -9 35 l-9
20 0 -20z"/>
<path d="M2480 3016 c0 -9 5 -16 10 -16 6 0 10 4 10 9 0 6 -4 13 -10 16 -5 3
-10 -1 -10 -9z"/>
<path d="M3010 2891 c0 -5 5 -13 10 -16 6 -3 10 -2 10 4 0 5 -4 13 -10 16 -5
3 -10 2 -10 -4z"/>
<path d="M2965 2860 c10 -11 20 -20 23 -20 3 0 -3 9 -13 20 -10 11 -20 20 -23
20 -3 0 3 -9 13 -20z"/>
<path d="M2245 2829 c-11 -17 -2 -18 19 -3 17 12 17 14 4 14 -9 0 -20 -5 -23
-11z"/>
<path d="M2581 2815 c0 -31 24 -73 36 -62 3 4 -1 15 -10 25 -10 10 -14 21 -11
25 3 3 1 14 -5 24 -9 16 -10 14 -10 -12z"/>
<path d="M2100 2810 c-14 -11 -20 -20 -14 -20 6 0 19 9 29 20 23 25 17 25 -15
0z"/>
<path d="M1899 2619 l-24 -20 28 17 c15 9 27 18 27 20 0 8 -8 4 -31 -17z"/>
<path d="M2621 2533 c-1 -12 4 -25 9 -28 12 -7 12 2 0 30 -8 19 -9 19 -9 -2z"/>
<path d="M3050 2545 c0 -15 48 -56 74 -64 17 -5 40 -12 51 -16 11 -4 -3 7 -30
23 -28 17 -57 37 -64 46 -13 15 -31 22 -31 11z"/>
<path d="M2167 2522 c-20 -22 -22 -37 -4 -25 6 4 20 6 30 5 11 -2 17 3 17 17
0 26 -21 27 -43 3z"/>
<path d="M2515 2380 c3 -5 8 -10 11 -10 2 0 4 5 4 10 0 6 -5 10 -11 10 -5 0
-7 -4 -4 -10z"/>
<path d="M1985 2369 c-12 -6 -27 -20 -34 -31 -13 -20 -12 -20 18 1 17 12 33
26 36 31 7 12 6 12 -20 -1z"/>
<path d="M2296 2354 c-9 -24 -2 -26 12 -4 7 11 8 20 3 20 -5 0 -12 -7 -15 -16z"/>
<path d="M2214 2325 c-10 -8 -14 -15 -8 -15 6 0 17 7 24 15 16 19 9 19 -16 0z"/>
<path d="M2037 2313 c-16 -15 -6 -34 15 -31 29 4 38 38 10 38 -10 0 -22 -3
-25 -7z"/>
<path d="M2260 2280 c0 -5 5 -10 11 -10 5 0 7 5 4 10 -3 6 -8 10 -11 10 -2 0
-4 -4 -4 -10z"/>
<path d="M3050 2268 c0 -8 6 -23 14 -33 13 -18 14 -18 9 8 -6 29 -23 48 -23
25z"/>
<path d="M2407 2246 c-4 -10 -7 -30 -6 -44 1 -25 1 -25 10 6 11 37 7 67 -4 38z"/>
<path d="M3220 2216 c0 -2 8 -10 18 -17 15 -13 16 -12 3 4 -13 16 -21 21 -21
13z"/>
<path d="M2187 2155 c-9 -13 -22 -36 -28 -52 -10 -26 -8 -25 25 11 20 21 36
42 36 47 0 18 -16 15 -33 -6z"/>
<path d="M2371 2138 c-1 -21 4 -38 9 -38 12 0 12 27 0 55 -7 16 -9 13 -9 -17z"/>
<path d="M2617 2123 c-4 -3 -7 -11 -7 -17 0 -6 5 -5 12 2 6 6 9 14 7 17 -3 3
-9 2 -12 -2z"/>
<path d="M2456 2098 c-3 -13 -6 -30 -6 -38 1 -13 2 -13 9 0 16 27 22 60 13 60
-5 0 -12 -10 -16 -22z"/>
<path d="M2911 2024 c0 -11 3 -14 6 -6 3 7 2 16 -1 19 -3 4 -6 -2 -5 -13z"/>
<path d="M2682 2000 c0 -14 2 -19 5 -12 2 6 2 18 0 25 -3 6 -5 1 -5 -13z"/>
<path d="M1940 1995 c-7 -8 -8 -15 -2 -15 5 0 15 7 22 15 7 8 8 15 2 15 -5 0
-15 -7 -22 -15z"/>
<path d="M2286 1981 c-3 -5 0 -11 8 -14 15 -6 26 1 26 15 0 11 -27 10 -34 -1z"/>
<path d="M2410 1970 c-9 -6 -10 -10 -3 -10 6 0 15 5 18 10 8 12 4 12 -15 0z"/>
<path d="M2315 1940 c-10 -11 -13 -20 -8 -20 13 0 38 29 31 35 -3 3 -13 -4
-23 -15z"/>
<path d="M2230 1930 c0 -11 4 -20 10 -20 5 0 14 9 20 20 9 17 8 20 -10 20 -13
0 -20 -7 -20 -20z"/>
<path d="M2431 1936 c-7 -8 -11 -30 -9 -48 l4 -33 17 37 c9 21 17 42 17 48 0
15 -16 12 -29 -4z"/>
<path d="M2080 1916 c0 -9 5 -16 10 -16 6 0 10 4 10 9 0 6 -4 13 -10 16 -5 3
-10 -1 -10 -9z"/>
<path d="M2180 1829 c-18 -35 -40 -73 -49 -83 -15 -18 -15 -18 5 -8 28 15 37
28 62 91 31 76 20 76 -18 0z"/>
<path d="M3240 1882 c0 -10 44 -32 62 -32 6 0 3 9 -7 20 -18 20 -55 28 -55 12z"/>
<path d="M1846 1865 c-11 -8 -16 -15 -10 -15 5 0 18 7 28 15 11 8 16 15 10 15
-5 0 -18 -7 -28 -15z"/>
<path d="M2060 1855 c0 -8 6 -15 14 -15 22 0 28 17 10 24 -22 9 -24 8 -24 -9z"/>
<path d="M2320 1848 c-12 -22 -12 -22 6 -6 10 10 15 20 12 24 -4 3 -12 -5 -18
-18z"/>
<path d="M3240 1843 c0 -11 98 -65 110 -61 6 2 3 13 -6 26 -11 16 -22 21 -35
17 -11 -4 -31 0 -44 9 -14 9 -25 13 -25 9z"/>
<path d="M1951 1797 c-6 -8 -8 -17 -4 -20 13 -13 31 -7 36 13 6 23 -14 27 -32
7z"/>
<path d="M3220 1804 c0 -3 9 -19 21 -35 14 -20 29 -29 47 -29 l27 1 -37 34
c-35 32 -58 44 -58 29z"/>
<path d="M2000 1750 c-6 -11 -7 -20 -2 -20 10 0 32 21 32 32 0 16 -19 8 -30
-12z"/>
<path d="M3400 1750 c6 -11 16 -20 22 -20 6 0 3 9 -7 20 -10 11 -20 20 -22 20
-2 0 1 -9 7 -20z"/>
<path d="M2376 1735 c-3 -8 -1 -15 4 -15 6 0 10 7 10 15 0 8 -2 15 -4 15 -2 0
-6 -7 -10 -15z"/>
<path d="M3036 1737 c3 -10 9 -15 12 -12 3 3 0 11 -7 18 -10 9 -11 8 -5 -6z"/>
<path d="M2451 1704 c0 -11 3 -14 6 -6 3 7 2 16 -1 19 -3 4 -6 -2 -5 -13z"/>
<path d="M2082 1677 c-24 -14 -58 -57 -45 -57 5 0 24 16 43 35 37 38 37 41 2
22z"/>
<path d="M2240 1670 c-8 -5 -12 -12 -9 -15 8 -8 39 5 39 16 0 11 -11 11 -30
-1z"/>
<path d="M2721 1654 c0 -11 3 -14 6 -6 3 7 2 16 -1 19 -3 4 -6 -2 -5 -13z"/>
<path d="M1849 1633 c-13 -16 -12 -17 4 -4 9 7 17 15 17 17 0 8 -8 3 -21 -13z"/>
<path d="M1986 1624 c-4 -9 -4 -19 -1 -22 2 -3 7 3 11 12 4 9 4 19 1 22 -2 3
-7 -3 -11 -12z"/>
<path d="M2181 1616 c-8 -9 -11 -19 -7 -23 9 -9 29 13 24 27 -2 8 -8 7 -17 -4z"/>
<path d="M2067 1573 c-4 -3 -7 -11 -7 -17 0 -6 5 -5 12 2 6 6 9 14 7 17 -3 3
-9 2 -12 -2z"/>
<path d="M2490 1542 c0 -22 4 -32 12 -30 18 6 20 22 3 43 -14 19 -14 18 -15
-13z"/>
<path d="M2720 1524 c0 -8 5 -12 10 -9 6 3 10 10 10 16 0 5 -4 9 -10 9 -5 0
-10 -7 -10 -16z"/>
<path d="M2846 1501 c10 -19 27 -36 37 -39 9 -2 17 -7 17 -11 0 -3 16 -19 37
-35 l36 -29 -19 33 c-10 18 -32 40 -48 49 -16 9 -41 27 -54 41 l-25 25 19 -34z"/>
<path d="M2591 1473 c0 -36 3 -43 9 -28 12 28 12 63 0 70 -6 4 -10 -12 -9 -42z"/>
<path d="M2790 1466 c0 -8 4 -17 9 -20 5 -4 7 3 4 14 -6 23 -13 26 -13 6z"/>
<path d="M1754 1428 l-19 -21 30 18 c41 26 40 25 23 25 -8 0 -23 -10 -34 -22z"/>
<path d="M2620 1418 c0 -9 5 -20 10 -23 13 -8 13 5 0 25 -8 13 -10 13 -10 -2z"/>
<path d="M2295 1408 c-9 -30 -12 -68 -5 -68 4 0 11 11 14 24 3 13 9 31 12 40
3 9 1 16 -5 16 -7 0 -13 -6 -16 -12z"/>
<path d="M3000 1416 c0 -2 7 -9 15 -16 13 -11 14 -10 9 4 -5 14 -24 23 -24 12z"/>
<path d="M1709 1393 c-13 -16 -12 -17 4 -4 16 13 21 21 13 21 -2 0 -10 -8 -17
-17z"/>
<path d="M1695 1358 c-68 -17 -72 -21 -40 -28 52 -13 62 -11 79 15 9 14 13 24
9 24 -5 -1 -26 -6 -48 -11z"/>
<path d="M2383 1275 c0 -22 2 -30 4 -17 2 12 2 30 0 40 -3 9 -5 -1 -4 -23z"/>
<path d="M2700 1282 c0 -5 7 -13 16 -16 10 -4 14 -1 12 6 -5 15 -28 23 -28 10z"/>
<path d="M1897 1263 c-4 -3 -7 -11 -7 -17 0 -6 5 -5 12 2 6 6 9 14 7 17 -3 3
-9 2 -12 -2z"/>
<path d="M2172 1248 c-14 -14 -16 -28 -3 -28 5 0 11 9 14 20 6 23 5 24 -11 8z"/>
<path d="M2720 1232 c0 -5 6 -17 14 -28 16 -21 30 -16 20 9 -6 16 -34 32 -34
19z"/>
<path d="M3275 1220 c3 -5 10 -10 16 -10 5 0 9 5 9 10 0 6 -7 10 -16 10 -8 0
-12 -4 -9 -10z"/>
<path d="M2590 1203 c0 -18 20 -66 25 -61 3 3 -1 20 -9 39 -9 19 -15 29 -16
22z"/>
<path d="M2098 1174 c-16 -8 -28 -19 -28 -23 0 -13 49 11 55 27 5 15 6 15 -27
-4z"/>
<path d="M3070 1157 c0 -8 6 -20 14 -26 10 -9 13 -7 12 11 -1 24 -26 38 -26
15z"/>
<path d="M1935 1125 c-17 -13 -17 -17 -4 -30 21 -21 61 -8 57 19 -4 26 -27 31
-53 11z"/>
<path d="M2696 1115 c10 -44 20 -61 26 -44 3 8 -3 28 -14 44 l-19 30 7 -30z"/>
<path d="M2507 1108 c-3 -12 -2 -29 3 -37 7 -12 9 -6 10 22 0 42 -5 48 -13 15z"/>
<path d="M1756 1093 c-6 -14 -5 -15 5 -6 7 7 10 15 7 18 -3 3 -9 -2 -12 -12z"/>
<path d="M1865 1100 c-4 -6 5 -10 20 -10 15 0 24 4 20 10 -3 6 -12 10 -20 10
-8 0 -17 -4 -20 -10z"/>
<path d="M2370 1058 c0 -21 5 -38 10 -38 13 0 13 40 0 60 -7 11 -10 5 -10 -22z"/>
<path d="M3286 1071 c-3 -5 1 -11 9 -15 8 -3 15 -1 15 4 0 13 -18 22 -24 11z"/>
<path d="M1845 1054 c-19 -15 -19 -15 10 -8 37 8 57 24 30 24 -11 0 -29 -8
-40 -16z"/>
<path d="M2838 1043 c-25 -6 -22 -22 6 -33 13 -5 29 -17 35 -27 9 -16 10 -15
10 7 0 22 -20 62 -30 59 -2 -1 -12 -3 -21 -6z"/>
<path d="M1920 1015 c-7 -9 -10 -18 -7 -21 3 -3 10 4 17 15 13 25 8 27 -10 6z"/>
<path d="M3131 1014 c0 -11 3 -14 6 -6 3 7 2 16 -1 19 -3 4 -6 -2 -5 -13z"/>
<path d="M1710 985 c-24 -14 -24 -14 -3 -15 30 0 54 10 47 21 -7 12 -14 11
-44 -6z"/>
<path d="M1835 989 c-11 -17 1 -21 15 -4 8 9 8 15 2 15 -6 0 -14 -5 -17 -11z"/>
<path d="M1954 977 c-20 -22 -48 -77 -39 -77 7 0 67 91 63 96 -3 2 -13 -6 -24
-19z"/>
<path d="M2172 983 c-6 -12 -12 -32 -12 -44 0 -21 1 -22 16 -7 9 9 14 27 12
44 -3 28 -3 29 -16 7z"/>
<path d="M2132 929 c-15 -24 -13 -32 7 -20 7 5 11 16 9 25 -2 14 -5 13 -16 -5z"/>
<path d="M2377 943 c-4 -3 -7 -11 -7 -17 0 -6 5 -5 12 2 6 6 9 14 7 17 -3 3
-9 2 -12 -2z"/>
<path d="M2507 944 c-10 -11 -8 -64 2 -64 13 0 24 51 13 62 -4 4 -11 5 -15 2z"/>
<path d="M2595 940 c3 -5 15 -10 26 -10 10 0 19 5 19 10 0 6 -12 10 -26 10
-14 0 -23 -4 -19 -10z"/>
<path d="M2675 930 c-9 -15 -1 -23 21 -18 15 3 16 4 1 16 -11 9 -17 10 -22 2z"/>
<path d="M2815 910 c3 -5 8 -10 11 -10 2 0 4 5 4 10 0 6 -5 10 -11 10 -5 0 -7
-4 -4 -10z"/>
<path d="M2860 910 c0 -5 5 -10 11 -10 5 0 7 5 4 10 -3 6 -8 10 -11 10 -2 0
-4 -4 -4 -10z"/>
<path d="M3070 885 c13 -14 26 -23 28 -20 7 7 -29 45 -41 45 -6 0 0 -11 13
-25z"/>
<path d="M2075 854 c-38 -19 -53 -34 -36 -34 17 0 71 32 71 42 0 10 0 10 -35
-8z"/>
<path d="M2326 862 c-3 -6 -1 -14 5 -17 15 -10 25 3 12 16 -7 7 -13 7 -17 1z"/>
<path d="M2483 625 c-8 -68 -20 -113 -37 -147 -14 -26 -22 -48 -18 -48 15 1
52 39 52 54 0 9 6 19 13 21 14 6 21 144 9 189 -6 23 -10 9 -19 -69z"/>
<path d="M2566 634 c-11 -28 -6 -81 8 -93 16 -14 26 12 26 72 0 39 -22 53 -34
21z"/>
<path d="M2665 487 c-16 -12 -17 -19 -9 -38 l11 -24 12 23 c7 13 11 30 9 38
-3 13 -5 13 -23 1z"/>
<path d="M2185 455 c-5 -2 -27 -6 -48 -10 -55 -9 -35 -25 31 -25 51 0 58 2 58
20 0 19 -15 24 -41 15z"/>
<path d="M2260 401 c-14 -4 -26 -15 -28 -24 -5 -24 11 -21 38 8 13 14 22 25
19 24 -2 -1 -15 -4 -29 -8z"/>
<path d="M2730 400 c0 -5 5 -10 10 -10 6 0 10 5 10 10 0 6 -4 10 -10 10 -5 0
-10 -4 -10 -10z"/>
<path d="M2185 370 c-3 -5 -1 -10 4 -10 6 0 11 5 11 10 0 6 -2 10 -4 10 -3 0
-8 -4 -11 -10z"/>
</g>
</svg>
